<svg width="1536" height="512" viewBox="0 0 1536 512" fill="none" xmlns="http://www.w3.org/2000/svg" role="img" aria-labelledby="title desc">
  <title id="title">Nobi Plush Scout expression strip</title>
  <desc id="desc">Three original Nobi plush mascot states: default, reminder, and completed.</desc>
  <defs>
    <linearGradient id="fur" x1="138" y1="46" x2="372" y2="372" gradientUnits="userSpaceOnUse">
      <stop stop-color="#FFF9EF"/>
      <stop offset="0.52" stop-color="#F1E3D1"/>
      <stop offset="1" stop-color="#D4BEA5"/>
    </linearGradient>
    <linearGradient id="face" x1="152" y1="132" x2="360" y2="304" gradientUnits="userSpaceOnUse">
      <stop stop-color="#FFF2DE"/>
      <stop offset="1" stop-color="#E9C6A7"/>
    </linearGradient>
    <linearGradient id="lens" x1="139" y1="180" x2="375" y2="265" gradientUnits="userSpaceOnUse">
      <stop stop-color="#FFFFFF" stop-opacity="0.86"/>
      <stop offset="1" stop-color="#6EA8FF" stop-opacity="0.18"/>
    </linearGradient>
    <linearGradient id="eye" x1="186" y1="203" x2="224" y2="254" gradientUnits="userSpaceOnUse">
      <stop stop-color="#49698F"/>
      <stop offset="1" stop-color="#0B1829"/>
    </linearGradient>
    <filter id="shadow" x="36" y="-6" width="440" height="492" filterUnits="userSpaceOnUse" color-interpolation-filters="sRGB">
      <feDropShadow dx="0" dy="14" stdDeviation="20" flood-color="#0B111B" flood-opacity="0.14"/>
      <feDropShadow dx="0" dy="0" stdDeviation="8" flood-color="#6EA8FF" flood-opacity="0.14"/>
    </filter>
    <g id="headBase">
      <path d="M194 96C176 52 186 21 216 14C242 8 258 36 256 77C254 36 270 8 296 14C326 21 336 52 318 96C369 125 400 179 400 252C400 356 338 421 256 421C174 421 112 356 112 252C112 179 143 125 194 96Z" fill="url(#fur)"/>
      <ellipse cx="256" cy="247" rx="156" ry="112" fill="url(#face)"/>
      <circle cx="136" cy="184" r="12" fill="#FFF9EF" opacity="0.74"/>
      <circle cx="123" cy="255" r="10" fill="#FFF9EF" opacity="0.68"/>
      <circle cx="146" cy="329" r="13" fill="#FFF9EF" opacity="0.68"/>
      <circle cx="376" cy="184" r="12" fill="#FFF9EF" opacity="0.74"/>
      <circle cx="389" cy="255" r="10" fill="#FFF9EF" opacity="0.68"/>
      <circle cx="366" cy="329" r="13" fill="#FFF9EF" opacity="0.68"/>
      <path d="M214 111C237 96 268 96 292 111" stroke="#FFF9EF" stroke-width="12" stroke-linecap="round" opacity="0.76"/>
      <path d="M206 34C226 36 242 63 248 95" stroke="#E4BFA8" stroke-width="10" stroke-linecap="round" opacity="0.55"/>
      <path d="M306 34C286 36 270 63 264 95" stroke="#E4BFA8" stroke-width="10" stroke-linecap="round" opacity="0.55"/>
    </g>
    <g id="glasses">
      <rect x="132" y="196" width="108" height="75" rx="29" fill="url(#lens)" stroke="#101820" stroke-width="13"/>
      <rect x="272" y="196" width="108" height="75" rx="29" fill="url(#lens)" stroke="#101820" stroke-width="13"/>
      <path d="M240 228C249 223 263 223 272 228" stroke="#101820" stroke-width="13" stroke-linecap="round"/>
    </g>
    <g id="radars">
      <path d="M205 72L187 110" stroke="#6EA8FF" stroke-width="5" stroke-linecap="round"/>
      <path d="M307 72L325 110" stroke="#6EA8FF" stroke-width="5" stroke-linecap="round"/>
      <circle cx="205" cy="69" r="11" fill="#28D8C0"/>
      <circle cx="307" cy="69" r="11" fill="#28D8C0"/>
      <circle cx="205" cy="69" r="20" stroke="#28D8C0" stroke-opacity="0.22" stroke-width="5"/>
      <circle cx="307" cy="69" r="20" stroke="#28D8C0" stroke-opacity="0.22" stroke-width="5"/>
    </g>
  </defs>

  <rect width="1536" height="512" rx="54" fill="#F7FBFF"/>

  <g transform="translate(0 0)">
    <circle cx="256" cy="258" r="226" fill="#6EA8FF" fill-opacity="0.07"/>
    <g filter="url(#shadow)"><use href="#headBase"/></g>
    <use href="#radars"/>
    <use href="#glasses"/>
    <ellipse cx="190" cy="235" rx="27" ry="32" fill="url(#eye)"/>
    <ellipse cx="322" cy="235" rx="27" ry="32" fill="url(#eye)"/>
    <circle cx="180" cy="224" r="7" fill="#FFFFFF"/>
    <circle cx="312" cy="224" r="7" fill="#FFFFFF"/>
    <path d="M181 251C192 242 205 242 216 251" stroke="#28D8C0" stroke-width="4" stroke-linecap="round"/>
    <path d="M313 251C324 242 337 242 348 251" stroke="#28D8C0" stroke-width="4" stroke-linecap="round"/>
    <circle cx="216" cy="243" r="5" fill="#6EA8FF"/>
    <circle cx="348" cy="243" r="5" fill="#6EA8FF"/>
    <ellipse cx="256" cy="284" rx="13" ry="10" fill="#6B5846"/>
    <path d="M232 320C247 332 265 332 280 320" stroke="#2E2A27" stroke-width="8" stroke-linecap="round"/>
  </g>

  <g transform="translate(512 0)">
    <circle cx="256" cy="258" r="226" fill="#28D8C0" fill-opacity="0.08"/>
    <g filter="url(#shadow)"><use href="#headBase"/></g>
    <use href="#radars"/>
    <circle cx="334" cy="63" r="31" stroke="#28D8C0" stroke-opacity="0.30" stroke-width="8"/>
    <circle cx="334" cy="63" r="15" fill="#28D8C0"/>
    <use href="#glasses"/>
    <ellipse cx="190" cy="233" rx="28" ry="35" fill="url(#eye)"/>
    <ellipse cx="322" cy="233" rx="28" ry="35" fill="url(#eye)"/>
    <circle cx="181" cy="220" r="7" fill="#FFFFFF"/>
    <circle cx="313" cy="220" r="7" fill="#FFFFFF"/>
    <circle cx="222" cy="242" r="6" fill="#28D8C0"/>
    <circle cx="354" cy="242" r="6" fill="#28D8C0"/>
    <ellipse cx="256" cy="284" rx="13" ry="10" fill="#6B5846"/>
    <path d="M234 320C248 330 264 330 278 320" stroke="#2E2A27" stroke-width="8" stroke-linecap="round"/>
  </g>

  <g transform="translate(1024 0)">
    <circle cx="256" cy="258" r="226" fill="#37C98B" fill-opacity="0.08"/>
    <g filter="url(#shadow)"><use href="#headBase"/></g>
    <use href="#radars"/>
    <use href="#glasses"/>
    <path d="M164 235C179 224 196 224 211 235" stroke="#0B1829" stroke-width="9" stroke-linecap="round"/>
    <path d="M296 235C311 224 328 224 343 235" stroke="#0B1829" stroke-width="9" stroke-linecap="round"/>
    <ellipse cx="256" cy="284" rx="13" ry="10" fill="#6B5846"/>
    <path d="M225 318C247 342 266 342 288 318" stroke="#2E2A27" stroke-width="9" stroke-linecap="round"/>
    <circle cx="362" cy="188" r="16" fill="#28D8C0"/>
    <path d="M349 188L360 199L379 176" stroke="#FFFFFF" stroke-width="7" stroke-linecap="round" stroke-linejoin="round"/>
  </g>
</svg>
