<svg width="1024" height="1024" viewBox="0 0 1024 1024" fill="none" xmlns="http://www.w3.org/2000/svg" role="img" aria-labelledby="title desc">
  <title id="title">Nobi Plush Scout primary mascot</title>
  <desc id="desc">An original plush desktop companion mascot for Evoly with cream fur, oversized HUD glasses, radar ears, pinstripe shirt, shorts, and sneakers.</desc>
  <defs>
    <radialGradient id="stageGlow" cx="0" cy="0" r="1" gradientUnits="userSpaceOnUse" gradientTransform="translate(512 454) rotate(90) scale(420 420)">
      <stop stop-color="#6EA8FF" stop-opacity="0.20"/>
      <stop offset="0.52" stop-color="#28D8C0" stop-opacity="0.10"/>
      <stop offset="1" stop-color="#9C7CFF" stop-opacity="0"/>
    </radialGradient>
    <linearGradient id="fur" x1="276" y1="106" x2="730" y2="712" gradientUnits="userSpaceOnUse">
      <stop stop-color="#FFF9EF"/>
      <stop offset="0.48" stop-color="#F2E6D5"/>
      <stop offset="1" stop-color="#D7C4AD"/>
    </linearGradient>
    <linearGradient id="face" x1="333" y1="256" x2="691" y2="575" gradientUnits="userSpaceOnUse">
      <stop stop-color="#FFF1DC"/>
      <stop offset="1" stop-color="#E9C7A9"/>
    </linearGradient>
    <linearGradient id="lens" x1="296" y1="354" x2="726" y2="548" gradientUnits="userSpaceOnUse">
      <stop stop-color="#FFFFFF" stop-opacity="0.80"/>
      <stop offset="0.45" stop-color="#CFEAFF" stop-opacity="0.30"/>
      <stop offset="1" stop-color="#6EA8FF" stop-opacity="0.18"/>
    </linearGradient>
    <linearGradient id="eye" x1="385" y1="408" x2="448" y2="492" gradientUnits="userSpaceOnUse">
      <stop stop-color="#49698F"/>
      <stop offset="1" stop-color="#0B1829"/>
    </linearGradient>
    <linearGradient id="shirt" x1="324" y1="642" x2="708" y2="864" gradientUnits="userSpaceOnUse">
      <stop stop-color="#DDF1FF"/>
      <stop offset="1" stop-color="#9AC8EE"/>
    </linearGradient>
    <pattern id="shirtStripes" width="22" height="22" patternUnits="userSpaceOnUse">
      <rect width="22" height="22" fill="transparent"/>
      <rect x="6" y="0" width="5" height="22" fill="#6EA8FF" fill-opacity="0.36"/>
    </pattern>
    <linearGradient id="denim" x1="355" y1="804" x2="670" y2="956" gradientUnits="userSpaceOnUse">
      <stop stop-color="#355270"/>
      <stop offset="1" stop-color="#142033"/>
    </linearGradient>
    <filter id="softShadow" x="116" y="28" width="792" height="968" filterUnits="userSpaceOnUse" color-interpolation-filters="sRGB">
      <feDropShadow dx="0" dy="28" stdDeviation="34" flood-color="#0B111B" flood-opacity="0.18"/>
      <feDropShadow dx="0" dy="0" stdDeviation="14" flood-color="#6EA8FF" flood-opacity="0.15"/>
    </filter>
  </defs>

  <rect width="1024" height="1024" rx="92" fill="#F7FBFF"/>
  <circle cx="512" cy="474" r="404" fill="url(#stageGlow)"/>
  <circle cx="512" cy="474" r="356" stroke="#FFFFFF" stroke-opacity="0.58" stroke-width="4"/>
  <path d="M220 492H170" stroke="#BDEEFF" stroke-width="9" stroke-linecap="round"/>
  <path d="M854 492H804" stroke="#BDEEFF" stroke-width="9" stroke-linecap="round"/>
  <circle cx="238" cy="492" r="22" fill="#28D8C0" fill-opacity="0.56"/>
  <circle cx="786" cy="492" r="22" fill="#28D8C0" fill-opacity="0.56"/>

  <g filter="url(#softShadow)">
    <path d="M386 183C354 113 371 58 420 45C468 33 502 78 512 146C522 78 556 33 604 45C653 58 670 113 638 183C731 230 790 323 790 443C790 620 665 724 512 724C359 724 234 620 234 443C234 323 293 230 386 183Z" fill="url(#fur)"/>
    <path d="M358 237C416 193 472 177 512 177C552 177 608 193 666 237" stroke="#FFF9EF" stroke-width="36" stroke-linecap="round" stroke-opacity="0.82"/>
    <ellipse cx="512" cy="440" rx="285" ry="215" fill="url(#face)"/>

    <g opacity="0.76">
      <circle cx="300" cy="315" r="18" fill="#FFF9EF"/>
      <circle cx="278" cy="375" r="13" fill="#FFF9EF"/>
      <circle cx="286" cy="514" r="15" fill="#FFF9EF"/>
      <circle cx="306" cy="578" r="18" fill="#FFF9EF"/>
      <circle cx="336" cy="255" r="14" fill="#FFF9EF"/>
      <circle cx="724" cy="315" r="18" fill="#FFF9EF"/>
      <circle cx="746" cy="375" r="13" fill="#FFF9EF"/>
      <circle cx="738" cy="514" r="15" fill="#FFF9EF"/>
      <circle cx="718" cy="578" r="18" fill="#FFF9EF"/>
      <circle cx="688" cy="255" r="14" fill="#FFF9EF"/>
      <circle cx="428" cy="129" r="13" fill="#FFF9EF"/>
      <circle cx="596" cy="129" r="13" fill="#FFF9EF"/>
    </g>
    <path d="M430 218C453 197 479 193 500 214" stroke="#FFF9EF" stroke-width="18" stroke-linecap="round" stroke-opacity="0.72"/>
    <path d="M498 207C520 188 548 192 570 217" stroke="#FFF9EF" stroke-width="18" stroke-linecap="round" stroke-opacity="0.72"/>
    <path d="M356 604C332 625 304 628 281 610" stroke="#FFF9EF" stroke-width="15" stroke-linecap="round" stroke-opacity="0.66"/>
    <path d="M668 604C692 625 720 628 743 610" stroke="#FFF9EF" stroke-width="15" stroke-linecap="round" stroke-opacity="0.66"/>

    <path d="M420 79C453 75 482 113 493 180C459 153 425 145 389 158C382 115 393 83 420 79Z" fill="#F7E6D2"/>
    <path d="M604 79C571 75 542 113 531 180C565 153 599 145 635 158C642 115 631 83 604 79Z" fill="#F7E6D2"/>
    <path d="M427 111C450 113 466 137 475 171" stroke="#E4BFA8" stroke-width="16" stroke-linecap="round" stroke-opacity="0.62"/>
    <path d="M597 111C574 113 558 137 549 171" stroke="#E4BFA8" stroke-width="16" stroke-linecap="round" stroke-opacity="0.62"/>
  </g>

  <path d="M406 157L370 222" stroke="#6EA8FF" stroke-width="8" stroke-linecap="round"/>
  <path d="M618 157L654 222" stroke="#6EA8FF" stroke-width="8" stroke-linecap="round"/>
  <circle cx="406" cy="150" r="20" fill="#28D8C0" fill-opacity="0.82"/>
  <circle cx="618" cy="150" r="20" fill="#28D8C0" fill-opacity="0.82"/>
  <circle cx="406" cy="150" r="35" stroke="#28D8C0" stroke-opacity="0.24" stroke-width="8"/>
  <circle cx="618" cy="150" r="35" stroke="#28D8C0" stroke-opacity="0.24" stroke-width="8"/>

  <rect x="286" y="350" width="186" height="128" rx="48" fill="url(#lens)" stroke="#101820" stroke-width="22"/>
  <rect x="552" y="350" width="186" height="128" rx="48" fill="url(#lens)" stroke="#101820" stroke-width="22"/>
  <path d="M472 402C500 388 524 388 552 402" stroke="#101820" stroke-width="22" stroke-linecap="round"/>
  <path d="M286 394L242 386" stroke="#101820" stroke-width="18" stroke-linecap="round"/>
  <path d="M738 394L782 386" stroke="#101820" stroke-width="18" stroke-linecap="round"/>
  <path d="M325 373C360 356 418 356 452 375" stroke="#FFFFFF" stroke-width="11" stroke-linecap="round" stroke-opacity="0.82"/>
  <path d="M591 373C626 356 684 356 718 375" stroke="#FFFFFF" stroke-width="11" stroke-linecap="round" stroke-opacity="0.82"/>

  <ellipse cx="390" cy="418" rx="48" ry="58" fill="url(#eye)"/>
  <ellipse cx="634" cy="418" rx="48" ry="58" fill="url(#eye)"/>
  <circle cx="374" cy="398" r="13" fill="#FFFFFF"/>
  <circle cx="618" cy="398" r="13" fill="#FFFFFF"/>
  <path d="M369 445C389 428 413 428 430 445" stroke="#28D8C0" stroke-width="7" stroke-linecap="round" opacity="0.86"/>
  <path d="M613 445C633 428 657 428 674 445" stroke="#28D8C0" stroke-width="7" stroke-linecap="round" opacity="0.86"/>
  <circle cx="420" cy="431" r="8" fill="#6EA8FF"/>
  <circle cx="664" cy="431" r="8" fill="#6EA8FF"/>

  <ellipse cx="512" cy="471" rx="24" ry="18" fill="#6B5846"/>
  <ellipse cx="512" cy="464" rx="14" ry="8" fill="#FFF3E5" fill-opacity="0.38"/>
  <path d="M469 531C493 552 531 552 555 531" stroke="#2E2A27" stroke-width="12" stroke-linecap="round"/>

  <path d="M359 664C315 688 291 737 306 773C319 805 360 802 373 769C384 741 400 714 431 696Z" fill="url(#shirt)"/>
  <path d="M359 664C315 688 291 737 306 773C319 805 360 802 373 769C384 741 400 714 431 696Z" fill="url(#shirtStripes)" opacity="0.68"/>
  <circle cx="303" cy="777" r="31" fill="#F3E8D7"/>
  <circle cx="292" cy="764" r="8" fill="#FFF9EF" opacity="0.72"/>
  <path d="M665 664C709 688 733 737 718 773C705 805 664 802 651 769C640 741 624 714 593 696Z" fill="url(#shirt)"/>
  <path d="M665 664C709 688 733 737 718 773C705 805 664 802 651 769C640 741 624 714 593 696Z" fill="url(#shirtStripes)" opacity="0.68"/>
  <circle cx="721" cy="777" r="31" fill="#F3E8D7"/>
  <circle cx="732" cy="764" r="8" fill="#FFF9EF" opacity="0.72"/>

  <path d="M345 640C394 604 467 592 512 592C557 592 630 604 679 640C708 684 714 776 688 828C644 864 574 878 512 878C450 878 380 864 336 828C310 776 316 684 345 640Z" fill="url(#shirt)"/>
  <path d="M345 640C394 604 467 592 512 592C557 592 630 604 679 640C708 684 714 776 688 828C644 864 574 878 512 878C450 878 380 864 336 828C310 776 316 684 345 640Z" fill="url(#shirtStripes)" opacity="0.72"/>
  <path d="M423 608L512 684L601 608" fill="#DDF1FF" stroke="#7FAED2" stroke-width="8" stroke-linejoin="round"/>
  <path d="M512 684V860" stroke="#6B9FC7" stroke-width="7" stroke-linecap="round" opacity="0.7"/>
  <circle cx="512" cy="718" r="10" fill="#F4FAFF" stroke="#7FAED2" stroke-width="4"/>
  <circle cx="512" cy="774" r="10" fill="#F4FAFF" stroke="#7FAED2" stroke-width="4"/>
  <circle cx="512" cy="830" r="10" fill="#F4FAFF" stroke="#7FAED2" stroke-width="4"/>
  <circle cx="640" cy="746" r="22" fill="#28D8C0"/>
  <circle cx="640" cy="746" r="34" stroke="#FFFFFF" stroke-opacity="0.80" stroke-width="7"/>
  <path d="M625 751C640 731 657 733 670 716" stroke="#FFFFFF" stroke-width="6" stroke-linecap="round"/>

  <path d="M371 824C407 853 463 866 512 866C561 866 617 853 653 824L675 918H349L371 824Z" fill="url(#denim)"/>
  <path d="M347 918H485V866H371L347 918Z" fill="#243A56"/>
  <path d="M539 866H653L677 918H539V866Z" fill="#243A56"/>
  <path d="M351 918H485" stroke="#7E94A7" stroke-width="12" stroke-linecap="round"/>
  <path d="M539 918H675" stroke="#7E94A7" stroke-width="12" stroke-linecap="round"/>

  <path d="M315 936C338 900 417 896 454 930C463 939 463 962 450 969H310C292 963 296 947 315 936Z" fill="#FFFFFF" stroke="#142033" stroke-width="7"/>
  <path d="M570 930C607 896 686 900 709 936C728 947 732 963 714 969H574C561 962 561 939 570 930Z" fill="#FFFFFF" stroke="#142033" stroke-width="7"/>
  <path d="M337 945H445" stroke="#6EA8FF" stroke-width="5" stroke-linecap="round" opacity="0.62"/>
  <path d="M579 945H687" stroke="#6EA8FF" stroke-width="5" stroke-linecap="round" opacity="0.62"/>
</svg>
